<svg xmlns="http://www.w3.org/2000/svg" viewBox="0 0 1200 360" role="img" aria-labelledby="title desc">
  <title id="title">WeChat Styler</title>
  <desc id="desc">Convert Markdown into polished WeChat-ready HTML.</desc>
  <rect width="1200" height="360" rx="28" fill="#F5F4ED"/>
  <path d="M46 314 H1154" stroke="#E5E3D8" stroke-width="1"/>
  <path d="M620 40 V320" stroke="#E5E3D8" stroke-width="1" stroke-dasharray="3 7"/>
  <circle cx="1150" cy="34" r="92" fill="#1B365D" opacity="0.025"/>
  <circle cx="34" cy="350" r="74" fill="#B85235" opacity="0.035"/>
  <text x="64" y="64" fill="#A04A2E" font-family="'Source Han Serif SC VF','Source Han Serif SC','Noto Serif CJK SC','Songti SC',STSong,SimSun,Georgia,serif" font-size="12" font-weight="500" letter-spacing="1.4">智见 AI  /  ZHIJIAN SKILLS</text><text x="64" y="105" fill="#1B365D" font-family="'Source Han Serif SC VF','Source Han Serif SC','Noto Serif CJK SC','Songti SC',STSong,SimSun,Georgia,serif" font-size="11" font-weight="500" letter-spacing="1.3">EDITORIAL PUBLISHING</text><text x="64" y="164" fill="#141413" font-family="'Source Han Serif SC VF','Source Han Serif SC','Noto Serif CJK SC','Songti SC',STSong,SimSun,Georgia,serif" font-size="43" font-weight="500" >WeChat Styler</text><text x="64" y="205" fill="#504E49" font-family="'Source Han Serif SC VF','Source Han Serif SC','Noto Serif CJK SC','Songti SC',STSong,SimSun,Georgia,serif" font-size="18" font-weight="400" >Convert Markdown into polished WeChat-ready HTML.</text><rect x="64" y="246" width="190" height="36" rx="8" fill="#FAF9F5" stroke="#E5E3D8" stroke-width="1"/><rect x="64" y="246" width="5" height="36" rx="2" fill="#B85235" stroke="none" stroke-width="1"/><text x="84" y="269" fill="#1B365D" font-family="'Source Han Serif SC VF','Source Han Serif SC','Noto Serif CJK SC','Songti SC',STSong,SimSun,Georgia,serif" font-size="11" font-weight="500" letter-spacing="1">OPEN AGENT SKILL</text><text x="64" y="335" fill="#6B6A64" font-family="'SF Mono','JetBrains Mono',Menlo,Consolas,monospace" font-size="11" font-weight="400" >wechat-styler</text><rect x="660" y="40" width="484" height="264" rx="12" fill="#FAF9F5" stroke="#E5E3D8" stroke-width="1"/><rect x="732" y="78" width="145" height="204" rx="12" fill="#30302E" stroke="none" stroke-width="1"/><text x="750" y="104" fill="#F5F4ED" font-family="'SF Mono','JetBrains Mono',Menlo,Consolas,monospace" font-size="10" font-weight="500" letter-spacing="1">MARKDOWN</text><rect x="750" y="126" width="94" height="8" rx="3" fill="#B85235" stroke="none" stroke-width="1"/><rect x="750" y="152" width="108" height="5" rx="2" fill="#6B6A64" stroke="none" stroke-width="1"/><rect x="750" y="171" width="83" height="5" rx="2" fill="#6B6A64" stroke="none" stroke-width="1"/><rect x="750" y="202" width="108" height="38" rx="7" fill="#3B3B38" stroke="none" stroke-width="1"/><rect x="750" y="255" width="72" height="5" rx="2" fill="#6B6A64" stroke="none" stroke-width="1"/><line x1="900" y1="181" x2="934" y2="181" stroke="#B85235" stroke-width="3" stroke-linecap="round"/><line x1="926" y1="173" x2="934" y2="181" stroke="#B85235" stroke-width="3" stroke-linecap="round"/><line x1="926" y1="189" x2="934" y2="181" stroke="#B85235" stroke-width="3" stroke-linecap="round"/><rect x="956" y="62" width="158" height="238" rx="12" fill="#FAF9F5" stroke="#E5E3D8" stroke-width="1"/><rect x="976" y="84" width="118" height="17" rx="4" fill="#1B365D" stroke="none" stroke-width="1"/><text x="1035" y="97" fill="#FAF9F5" font-family="'Source Han Serif SC VF','Source Han Serif SC','Noto Serif CJK SC','Songti SC',STSong,SimSun,Georgia,serif" font-size="9" font-weight="500" text-anchor="middle" letter-spacing="1">WECHAT</text><rect x="976" y="121" width="92" height="7" rx="3" fill="#B85235" stroke="none" stroke-width="1"/><rect x="976" y="146" width="118" height="5" rx="2" fill="#E8E6DC" stroke="none" stroke-width="1"/><rect x="976" y="164" width="103" height="5" rx="2" fill="#E8E6DC" stroke="none" stroke-width="1"/><rect x="976" y="192" width="118" height="48" rx="8" fill="#F5F4ED" stroke="#E5E3D8" stroke-width="1"/><rect x="976" y="256" width="82" height="5" rx="2" fill="#E8E6DC" stroke="none" stroke-width="1"/>
</svg>
