<svg xmlns="http://www.w3.org/2000/svg" viewBox="0 0 1200 360" role="img" aria-labelledby="title desc">
  <title id="title">Codex Theme Studio</title>
  <desc id="desc">Design, apply, verify, and restore reversible themes.</desc>
  <rect width="1200" height="360" rx="28" fill="#F5F4ED"/>
  <path d="M46 314 H1154" stroke="#E5E3D8" stroke-width="1"/>
  <path d="M620 40 V320" stroke="#E5E3D8" stroke-width="1" stroke-dasharray="3 7"/>
  <circle cx="1150" cy="34" r="92" fill="#1B365D" opacity="0.025"/>
  <circle cx="34" cy="350" r="74" fill="#B85235" opacity="0.035"/>
  <text x="64" y="64" fill="#A04A2E" font-family="'Source Han Serif SC VF','Source Han Serif SC','Noto Serif CJK SC','Songti SC',STSong,SimSun,Georgia,serif" font-size="12" font-weight="500" letter-spacing="1.4">智见 AI  /  ZHIJIAN SKILLS</text><text x="64" y="105" fill="#1B365D" font-family="'Source Han Serif SC VF','Source Han Serif SC','Noto Serif CJK SC','Songti SC',STSong,SimSun,Georgia,serif" font-size="11" font-weight="500" letter-spacing="1.3">CODEX EXPERIENCE</text><text x="64" y="164" fill="#141413" font-family="'Source Han Serif SC VF','Source Han Serif SC','Noto Serif CJK SC','Songti SC',STSong,SimSun,Georgia,serif" font-size="43" font-weight="500" >Codex Theme Studio</text><text x="64" y="205" fill="#504E49" font-family="'Source Han Serif SC VF','Source Han Serif SC','Noto Serif CJK SC','Songti SC',STSong,SimSun,Georgia,serif" font-size="18" font-weight="400" >Design, apply, verify, and restore reversible themes.</text><rect x="64" y="246" width="190" height="36" rx="8" fill="#FAF9F5" stroke="#E5E3D8" stroke-width="1"/><rect x="64" y="246" width="5" height="36" rx="2" fill="#B85235" stroke="none" stroke-width="1"/><text x="84" y="269" fill="#1B365D" font-family="'Source Han Serif SC VF','Source Han Serif SC','Noto Serif CJK SC','Songti SC',STSong,SimSun,Georgia,serif" font-size="11" font-weight="500" letter-spacing="1">OPEN AGENT SKILL</text><text x="64" y="335" fill="#6B6A64" font-family="'SF Mono','JetBrains Mono',Menlo,Consolas,monospace" font-size="11" font-weight="400" >codex-theme-studio</text><rect x="660" y="40" width="484" height="264" rx="12" fill="#FAF9F5" stroke="#E5E3D8" stroke-width="1"/><rect x="726" y="72" width="390" height="224" rx="14" fill="#FAF9F5" stroke="#E5E3D8" stroke-width="1"/><circle cx="748" cy="91" r="4" fill="#B85235" stroke="none" stroke-width="1"/><circle cx="762" cy="91" r="4" fill="#D6A82A" stroke="none" stroke-width="1"/><circle cx="776" cy="91" r="4" fill="#2F6F4E" stroke="none" stroke-width="1"/><line x1="726" y1="106" x2="1116" y2="106" stroke="#E5E3D8" stroke-width="1" stroke-linecap="round"/><rect x="742" y="120" width="82" height="158" rx="8" fill="#E8E6DC" stroke="none" stroke-width="1"/><rect x="754" y="138" width="54" height="5" rx="2" fill="#6B6A64" stroke="none" stroke-width="1"/><rect x="754" y="162" width="62" height="5" rx="2" fill="#6B6A64" stroke="none" stroke-width="1"/><rect x="754" y="186" width="46" height="5" rx="2" fill="#6B6A64" stroke="none" stroke-width="1"/><rect x="754" y="222" width="60" height="5" rx="2" fill="#6B6A64" stroke="none" stroke-width="1"/><rect x="754" y="246" width="50" height="5" rx="2" fill="#6B6A64" stroke="none" stroke-width="1"/><rect x="840" y="120" width="258" height="82" rx="10" fill="#F5F4ED" stroke="#E5E3D8" stroke-width="1"/><rect x="969" y="120" width="129" height="82" rx="10" fill="#EEE7D8" stroke="none" stroke-width="1"/><rect x="856" y="139" width="90" height="7" rx="3" fill="#B85235" stroke="none" stroke-width="1"/><rect x="856" y="160" width="102" height="5" rx="2" fill="#504E49" stroke="none" stroke-width="1"/><rect x="856" y="176" width="72" height="4" rx="2" fill="#E8E6DC" stroke="none" stroke-width="1"/><rect x="994" y="143" width="50" height="36" rx="6" fill="#1B365D" stroke="none" stroke-width="1"/><circle cx="1006" cy="155" r="3" fill="#FAF9F5" stroke="none" stroke-width="1"/><circle cx="1032" cy="155" r="3" fill="#FAF9F5" stroke="none" stroke-width="1"/><line x1="1006" y1="169" x2="1032" y2="169" stroke="#FAF9F5" stroke-width="2" stroke-linecap="round"/><rect x="852" y="218" width="50" height="48" rx="8" fill="#FAF9F5" stroke="#E5E3D8" stroke-width="1"/><circle cx="877" cy="235" r="7" fill="#B85235" stroke="none" stroke-width="1"/><rect x="864" y="251" width="26" height="4" rx="2" fill="#E8E6DC" stroke="none" stroke-width="1"/><rect x="914" y="218" width="50" height="48" rx="8" fill="#FAF9F5" stroke="#E5E3D8" stroke-width="1"/><circle cx="939" cy="235" r="7" fill="#1B365D" stroke="none" stroke-width="1"/><rect x="926" y="251" width="26" height="4" rx="2" fill="#E8E6DC" stroke="none" stroke-width="1"/><rect x="976" y="218" width="50" height="48" rx="8" fill="#FAF9F5" stroke="#E5E3D8" stroke-width="1"/><circle cx="1001" cy="235" r="7" fill="#2F6F4E" stroke="none" stroke-width="1"/><rect x="988" y="251" width="26" height="4" rx="2" fill="#E8E6DC" stroke="none" stroke-width="1"/><rect x="1038" y="218" width="50" height="48" rx="8" fill="#FAF9F5" stroke="#E5E3D8" stroke-width="1"/><circle cx="1063" cy="235" r="7" fill="#E8E6DC" stroke="none" stroke-width="1"/><rect x="1050" y="251" width="26" height="4" rx="2" fill="#E8E6DC" stroke="none" stroke-width="1"/><text x="1088" y="282" fill="#2F6F4E" font-family="'Source Han Serif SC VF','Source Han Serif SC','Noto Serif CJK SC','Songti SC',STSong,SimSun,Georgia,serif" font-size="10" font-weight="500" text-anchor="end" letter-spacing=".7">VERIFY ✓</text>
</svg>
