<svg xmlns="http://www.w3.org/2000/svg" viewBox="0 0 1200 360" role="img" aria-labelledby="title desc" data-composition="source-to-report">
  <title id="title">HTML Express</title>
  <desc id="desc">Dense source material transforms into a clear, self-contained HTML decision report.</desc>
  <rect width="1200" height="360" rx="28" fill="#164E63"/>
  <g data-composition="source-to-report"><text x="50" y="50" fill="#38BDF8" font-family="ui-monospace,'SFMono-Regular',Menlo,monospace" font-size="15" font-weight="750" letter-spacing="2">INFORMATION DESIGN</text><text x="50" y="112" fill="#FCFAF4" font-family="-apple-system,BlinkMacSystemFont,'Segoe UI','PingFang SC',sans-serif" font-size="58" font-weight="760" >HTML</text><text x="50" y="170" fill="#FCFAF4" font-family="-apple-system,BlinkMacSystemFont,'Segoe UI','PingFang SC',sans-serif" font-size="58" font-weight="760" >Express</text><text x="50" y="216" fill="#B8DDE7" font-family="-apple-system,BlinkMacSystemFont,'Segoe UI','PingFang SC',sans-serif" font-size="22" font-weight="500" >Dense source in. Clear report out.</text><rect x="50" y="258" width="310" height="44" rx="7" fill="#38BDF8" stroke="none" stroke-width="1" /><text x="72" y="287" fill="#132C35" font-family="ui-monospace,'SFMono-Regular',Menlo,monospace" font-size="16" font-weight="800" >ONE FILE  •  ZERO RUNTIME</text><rect x="452" y="52" width="220" height="256" rx="8" fill="#DCE6E5" stroke="none" stroke-width="1" /><text x="478" y="84" fill="#132C35" font-family="ui-monospace,'SFMono-Regular',Menlo,monospace" font-size="14" font-weight="750" >SOURCE</text><rect x="478" y="108" width="150" height="6" rx="3" fill="#6C7E7E" stroke="none" stroke-width="1" /><rect x="478" y="130" width="124" height="6" rx="3" fill="#6C7E7E" stroke="none" stroke-width="1" /><rect x="478" y="152" width="168" height="6" rx="3" fill="#6C7E7E" stroke="none" stroke-width="1" /><rect x="478" y="174" width="104" height="6" rx="3" fill="#6C7E7E" stroke="none" stroke-width="1" /><rect x="478" y="196" width="148" height="6" rx="3" fill="#6C7E7E" stroke="none" stroke-width="1" /><rect x="478" y="218" width="132" height="6" rx="3" fill="#6C7E7E" stroke="none" stroke-width="1" /><rect x="478" y="240" width="164" height="6" rx="3" fill="#6C7E7E" stroke="none" stroke-width="1" /><rect x="478" y="262" width="92" height="6" rx="3" fill="#6C7E7E" stroke="none" stroke-width="1" /><line x1="700" y1="181" x2="756" y2="181" stroke="#FB923C" stroke-width="5" /><path d="M742 168 L756 181 L742 194" fill="none" stroke="#FB923C" stroke-width="5" stroke-linecap="round" stroke-linejoin="round"/><rect x="790" y="34" width="360" height="292" rx="12" fill="#FCFAF4" stroke="none" stroke-width="1" /><rect x="812" y="56" width="316" height="32" rx="5" fill="#38BDF8" stroke="none" stroke-width="1" /><text x="830" y="78" fill="#132C35" font-family="ui-monospace,'SFMono-Regular',Menlo,monospace" font-size="14" font-weight="800" >DECISION REPORT</text><rect x="812" y="108" width="146" height="72" rx="8" fill="#E7F6FB" stroke="none" stroke-width="1" /><rect x="972" y="108" width="156" height="72" rx="8" fill="#FFF0E5" stroke="none" stroke-width="1" /><text x="830" y="138" fill="#38BDF8" font-family="ui-monospace,'SFMono-Regular',Menlo,monospace" font-size="28" font-weight="800" >72%</text><text x="990" y="138" fill="#FB923C" font-family="ui-monospace,'SFMono-Regular',Menlo,monospace" font-size="28" font-weight="800" >04</text><rect x="812" y="202" width="316" height="12" rx="4" fill="#132C35" stroke="none" stroke-width="1" /><rect x="812" y="230" width="230" height="7" rx="3" fill="#B7C5C5" stroke="none" stroke-width="1" /><rect x="812" y="252" width="280" height="7" rx="3" fill="#B7C5C5" stroke="none" stroke-width="1" /><rect x="812" y="274" width="196" height="7" rx="3" fill="#B7C5C5" stroke="none" stroke-width="1" /><text x="1128" y="309" fill="#FB923C" font-family="ui-monospace,'SFMono-Regular',Menlo,monospace" font-size="16" font-weight="800" text-anchor="end">.html</text></g>
</svg>
