<svg xmlns="http://www.w3.org/2000/svg" viewBox="0 0 1200 360" role="img" aria-labelledby="title desc">
  <title id="title">HTML Express</title>
  <desc id="desc">Transform dense material into a clear standalone report.</desc>
  <rect width="1200" height="360" rx="28" fill="#F5F4ED"/>
  <path d="M46 314 H1154" stroke="#E5E3D8" stroke-width="1"/>
  <path d="M620 40 V320" stroke="#E5E3D8" stroke-width="1" stroke-dasharray="3 7"/>
  <circle cx="1150" cy="34" r="92" fill="#1B365D" opacity="0.025"/>
  <circle cx="34" cy="350" r="74" fill="#B85235" opacity="0.035"/>
  <text x="64" y="64" fill="#A04A2E" font-family="'Source Han Serif SC VF','Source Han Serif SC','Noto Serif CJK SC','Songti SC',STSong,SimSun,Georgia,serif" font-size="12" font-weight="500" letter-spacing="1.4">智见 AI  /  ZHIJIAN SKILLS</text><text x="64" y="105" fill="#1B365D" font-family="'Source Han Serif SC VF','Source Han Serif SC','Noto Serif CJK SC','Songti SC',STSong,SimSun,Georgia,serif" font-size="11" font-weight="500" letter-spacing="1.3">INFORMATION DESIGN</text><text x="64" y="164" fill="#141413" font-family="'Source Han Serif SC VF','Source Han Serif SC','Noto Serif CJK SC','Songti SC',STSong,SimSun,Georgia,serif" font-size="43" font-weight="500" >HTML Express</text><text x="64" y="205" fill="#504E49" font-family="'Source Han Serif SC VF','Source Han Serif SC','Noto Serif CJK SC','Songti SC',STSong,SimSun,Georgia,serif" font-size="18" font-weight="400" >Transform dense material into a clear standalone report.</text><rect x="64" y="246" width="190" height="36" rx="8" fill="#FAF9F5" stroke="#E5E3D8" stroke-width="1"/><rect x="64" y="246" width="5" height="36" rx="2" fill="#B85235" stroke="none" stroke-width="1"/><text x="84" y="269" fill="#1B365D" font-family="'Source Han Serif SC VF','Source Han Serif SC','Noto Serif CJK SC','Songti SC',STSong,SimSun,Georgia,serif" font-size="11" font-weight="500" letter-spacing="1">OPEN AGENT SKILL</text><text x="64" y="335" fill="#6B6A64" font-family="'SF Mono','JetBrains Mono',Menlo,Consolas,monospace" font-size="11" font-weight="400" >html-express</text><rect x="660" y="40" width="484" height="264" rx="12" fill="#FAF9F5" stroke="#E5E3D8" stroke-width="1"/><rect x="738" y="82" width="146" height="198" rx="12" fill="#E8E6DC" stroke="#E5E3D8" stroke-width="1"/><text x="756" y="108" fill="#1B365D" font-family="'SF Mono','JetBrains Mono',Menlo,Consolas,monospace" font-size="10" font-weight="500" letter-spacing="1">SOURCE</text><rect x="756" y="128" width="92" height="5" rx="2" fill="#6B6A64" stroke="none" stroke-width="1"/><rect x="756" y="147" width="105" height="5" rx="2" fill="#6B6A64" stroke="none" stroke-width="1"/><rect x="756" y="166" width="74" height="5" rx="2" fill="#6B6A64" stroke="none" stroke-width="1"/><rect x="756" y="185" width="110" height="5" rx="2" fill="#6B6A64" stroke="none" stroke-width="1"/><rect x="756" y="204" width="86" height="5" rx="2" fill="#6B6A64" stroke="none" stroke-width="1"/><rect x="756" y="223" width="100" height="5" rx="2" fill="#6B6A64" stroke="none" stroke-width="1"/><rect x="756" y="242" width="64" height="5" rx="2" fill="#6B6A64" stroke="none" stroke-width="1"/><line x1="904" y1="181" x2="936" y2="181" stroke="#B85235" stroke-width="3" stroke-linecap="round"/><line x1="928" y1="173" x2="936" y2="181" stroke="#B85235" stroke-width="3" stroke-linecap="round"/><line x1="928" y1="189" x2="936" y2="181" stroke="#B85235" stroke-width="3" stroke-linecap="round"/><rect x="956" y="82" width="160" height="198" rx="12" fill="#FAF9F5" stroke="#E5E3D8" stroke-width="1"/><rect x="974" y="101" width="124" height="22" rx="4" fill="#1B365D" stroke="none" stroke-width="1"/><rect x="974" y="140" width="58" height="52" rx="8" fill="#F5F4ED" stroke="#E5E3D8" stroke-width="1"/><rect x="1040" y="140" width="58" height="52" rx="8" fill="#F5F4ED" stroke="#E5E3D8" stroke-width="1"/><rect x="974" y="207" width="124" height="9" rx="3" fill="#B85235" stroke="none" stroke-width="1"/><rect x="974" y="232" width="98" height="6" rx="3" fill="#E8E6DC" stroke="none" stroke-width="1"/><rect x="974" y="250" width="116" height="6" rx="3" fill="#E8E6DC" stroke="none" stroke-width="1"/>
</svg>
