<svg xmlns="http://www.w3.org/2000/svg" viewBox="0 0 1200 360" role="img" aria-labelledby="title desc" data-composition="portfolio-outcome-map">
  <title id="title">Zhijian Skills</title>
  <desc id="desc">One canonical portfolio of eleven focused and independently verified Agent Skills.</desc>
  <rect width="1200" height="360" rx="28" fill="#102A43"/>
  <g data-composition="portfolio-outcome-map"><text x="58" y="62" fill="#65D6AD" font-family="ui-monospace,'SFMono-Regular',Menlo,monospace" font-size="16" font-weight="650" letter-spacing="2">ZHIJIAN / OPEN AGENT SKILLS</text><text x="58" y="140" fill="#F8F3E7" font-family="-apple-system,BlinkMacSystemFont,'Segoe UI','PingFang SC',sans-serif" font-size="58" font-weight="700" >Zhijian</text><text x="58" y="200" fill="#F8F3E7" font-family="-apple-system,BlinkMacSystemFont,'Segoe UI','PingFang SC',sans-serif" font-size="58" font-weight="700" >Skills</text><text x="58" y="244" fill="#A9C2D6" font-family="-apple-system,BlinkMacSystemFont,'Segoe UI','PingFang SC',sans-serif" font-size="22" font-weight="450" >One source. Eleven focused capabilities.</text><rect x="58" y="278" width="356" height="46" rx="8" fill="#65D6AD" stroke="none" stroke-width="1" /><text x="78" y="308" fill="#102A43" font-family="ui-monospace,'SFMono-Regular',Menlo,monospace" font-size="16" font-weight="700" >$ npx skills add zjp1997720/zhijian-skills</text><line x1="478" y1="42" x2="478" y2="318" stroke="#355B75" stroke-width="2" /><text x="530" y="62" fill="#A9C2D6" font-family="ui-monospace,'SFMono-Regular',Menlo,monospace" font-size="15" font-weight="650" letter-spacing="2">CHOOSE BY OUTCOME</text><text x="520" y="90" fill="#65D6AD" font-family="ui-monospace,'SFMono-Regular',Menlo,monospace" font-size="14" font-weight="700" letter-spacing="1.5">CONTROL</text><rect x="520" y="108" width="184" height="32" rx="6" fill="#173B57" stroke="none" stroke-width="1" /><rect x="520" y="108" width="5" height="32" rx="2" fill="#65D6AD" stroke="none" stroke-width="1" /><text x="538" y="130" fill="#F8F3E7" font-family="ui-monospace,'SFMono-Regular',Menlo,monospace" font-size="15" font-weight="600" >doctor</text><rect x="520" y="150" width="184" height="32" rx="6" fill="#173B57" stroke="none" stroke-width="1" /><rect x="520" y="150" width="5" height="32" rx="2" fill="#65D6AD" stroke="none" stroke-width="1" /><text x="538" y="172" fill="#F8F3E7" font-family="ui-monospace,'SFMono-Regular',Menlo,monospace" font-size="15" font-weight="600" >routing</text><rect x="520" y="192" width="184" height="32" rx="6" fill="#173B57" stroke="none" stroke-width="1" /><rect x="520" y="192" width="5" height="32" rx="2" fill="#65D6AD" stroke="none" stroke-width="1" /><text x="538" y="214" fill="#F8F3E7" font-family="ui-monospace,'SFMono-Regular',Menlo,monospace" font-size="15" font-weight="600" >admin</text><rect x="520" y="234" width="184" height="32" rx="6" fill="#173B57" stroke="none" stroke-width="1" /><rect x="520" y="234" width="5" height="32" rx="2" fill="#65D6AD" stroke="none" stroke-width="1" /><text x="538" y="256" fill="#F8F3E7" font-family="ui-monospace,'SFMono-Regular',Menlo,monospace" font-size="15" font-weight="600" >theme</text><text x="735" y="90" fill="#FF9F43" font-family="ui-monospace,'SFMono-Regular',Menlo,monospace" font-size="14" font-weight="700" letter-spacing="1.5">CREATE</text><rect x="735" y="108" width="184" height="32" rx="6" fill="#173B57" stroke="none" stroke-width="1" /><rect x="735" y="108" width="5" height="32" rx="2" fill="#FF9F43" stroke="none" stroke-width="1" /><text x="753" y="130" fill="#F8F3E7" font-family="ui-monospace,'SFMono-Regular',Menlo,monospace" font-size="15" font-weight="600" >clone</text><rect x="735" y="150" width="184" height="32" rx="6" fill="#173B57" stroke="none" stroke-width="1" /><rect x="735" y="150" width="5" height="32" rx="2" fill="#FF9F43" stroke="none" stroke-width="1" /><text x="753" y="172" fill="#F8F3E7" font-family="ui-monospace,'SFMono-Regular',Menlo,monospace" font-size="15" font-weight="600" >html</text><rect x="735" y="192" width="184" height="32" rx="6" fill="#173B57" stroke="none" stroke-width="1" /><rect x="735" y="192" width="5" height="32" rx="2" fill="#FF9F43" stroke="none" stroke-width="1" /><text x="753" y="214" fill="#F8F3E7" font-family="ui-monospace,'SFMono-Regular',Menlo,monospace" font-size="15" font-weight="600" >styler</text><text x="950" y="90" fill="#A78BFA" font-family="ui-monospace,'SFMono-Regular',Menlo,monospace" font-size="14" font-weight="700" letter-spacing="1.5">SHIP</text><rect x="950" y="108" width="184" height="32" rx="6" fill="#173B57" stroke="none" stroke-width="1" /><rect x="950" y="108" width="5" height="32" rx="2" fill="#A78BFA" stroke="none" stroke-width="1" /><text x="968" y="130" fill="#F8F3E7" font-family="ui-monospace,'SFMono-Regular',Menlo,monospace" font-size="15" font-weight="600" >plan</text><rect x="950" y="150" width="184" height="32" rx="6" fill="#173B57" stroke="none" stroke-width="1" /><rect x="950" y="150" width="5" height="32" rx="2" fill="#A78BFA" stroke="none" stroke-width="1" /><text x="968" y="172" fill="#F8F3E7" font-family="ui-monospace,'SFMono-Regular',Menlo,monospace" font-size="15" font-weight="600" >release</text><rect x="950" y="192" width="184" height="32" rx="6" fill="#173B57" stroke="none" stroke-width="1" /><rect x="950" y="192" width="5" height="32" rx="2" fill="#A78BFA" stroke="none" stroke-width="1" /><text x="968" y="214" fill="#F8F3E7" font-family="ui-monospace,'SFMono-Regular',Menlo,monospace" font-size="15" font-weight="600" >search</text><rect x="950" y="234" width="184" height="32" rx="6" fill="#173B57" stroke="none" stroke-width="1" /><rect x="950" y="234" width="5" height="32" rx="2" fill="#A78BFA" stroke="none" stroke-width="1" /><text x="968" y="256" fill="#F8F3E7" font-family="ui-monospace,'SFMono-Regular',Menlo,monospace" font-size="15" font-weight="600" >bridge</text></g>
</svg>
